<?xml version="1.0" encoding="utf-8"?>
<!-- Generator: Adobe Illustrator 22.1.0, SVG Export Plug-In . SVG Version: 6.00 Build 0)  -->
<svg version="1.1" id="Layer_1" xmlns="http://www.w3.org/2000/svg" xmlns:xlink="http://www.w3.org/1999/xlink" x="0px" y="0px"
	 viewBox="0 0 72.4 97.6" style="enable-background:new 0 0 72.4 97.6;" xml:space="preserve">
<style type="text/css">
	.st0{opacity:0.5;fill:url(#SVGID_1_);}
	.st1{fill:url(#SVGID_2_);}
	.st2{fill:url(#SVGID_3_);}
	.st3{opacity:0.2;fill:url(#SVGID_4_);}
	.st4{opacity:0.4;fill:url(#SVGID_5_);}
	.st5{opacity:0.76;fill:url(#SVGID_6_);}
	.st6{opacity:0.4;fill:url(#SVGID_7_);}
	.st7{fill:url(#SVGID_8_);}
	.st8{fill:url(#SVGID_9_);}
	.st9{opacity:0.18;fill:url(#SVGID_10_);}
	.st10{opacity:0.5;fill:url(#SVGID_11_);}
	.st11{fill:url(#SVGID_12_);}
	.st12{fill:url(#SVGID_13_);}
	.st13{opacity:0.2;fill:url(#SVGID_14_);}
	.st14{opacity:0.4;fill:url(#SVGID_15_);}
	.st15{opacity:0.76;fill:url(#SVGID_16_);}
	.st16{opacity:0.4;fill:url(#SVGID_17_);}
	.st17{fill:url(#SVGID_18_);}
	.st18{fill:url(#SVGID_19_);}
	.st19{opacity:0.38;fill:url(#SVGID_20_);}
	.st20{fill:#F40000;}
	.st21{fill:#1CBA00;}
	.st22{opacity:0.2;fill:#FFFFFF;}
	.st23{fill:#FFFFFF;}
</style>
<g>
	<radialGradient id="SVGID_1_" cx="47.4306" cy="229.1236" r="118.9995" gradientUnits="userSpaceOnUse">
		<stop  offset="0.4304" style="stop-color:#000000"/>
		<stop  offset="0.4555" style="stop-color:#191919"/>
		<stop  offset="0.5157" style="stop-color:#4E4E4E"/>
		<stop  offset="0.5782" style="stop-color:#7D7D7D"/>
		<stop  offset="0.6419" style="stop-color:#A5A5A5"/>
		<stop  offset="0.7068" style="stop-color:#C6C6C6"/>
		<stop  offset="0.7735" style="stop-color:#DFDFDF"/>
		<stop  offset="0.8427" style="stop-color:#F1F1F1"/>
		<stop  offset="0.9159" style="stop-color:#FCFCFC"/>
		<stop  offset="1" style="stop-color:#FFFFFF"/>
	</radialGradient>
	<path class="st0" d="M47.4,110.1c-65.7,0-119,53.3-119,119c0,65.7,53.3,119,119,119c65.7,0,119-53.3,119-119
		C166.4,163.4,113.1,110.1,47.4,110.1z"/>
	<linearGradient id="SVGID_2_" gradientUnits="userSpaceOnUse" x1="80.2663" y1="280.0556" x2="-53.56" y2="69.0219">
		<stop  offset="0" style="stop-color:#FFFFFF"/>
		<stop  offset="1" style="stop-color:#F1F1F1"/>
	</linearGradient>
	<circle class="st1" cx="34.1" cy="207.2" r="87.6"/>
	<linearGradient id="SVGID_3_" gradientUnits="userSpaceOnUse" x1="-27.5359" y1="143.778" x2="97.1701" y2="272.1575">
		<stop  offset="0.1667" style="stop-color:#FFFFFF"/>
		<stop  offset="0.3194" style="stop-color:#FBFBFB"/>
		<stop  offset="0.4802" style="stop-color:#EEEEEE"/>
		<stop  offset="0.6447" style="stop-color:#D9D9D9"/>
		<stop  offset="0.8107" style="stop-color:#BCBCBC"/>
		<stop  offset="0.8676" style="stop-color:#B0B0B0"/>
	</linearGradient>
	<path class="st2" d="M34.1,296.7c-49.4,0-89.5-40.2-89.5-89.5s40.2-89.5,89.5-89.5c49.4,0,89.5,40.2,89.5,89.5
		S83.4,296.7,34.1,296.7z M34.1,121.5c-47.2,0-85.7,38.4-85.7,85.7c0,47.2,38.4,85.7,85.7,85.7c47.2,0,85.7-38.4,85.7-85.7
		C119.7,159.9,81.3,121.5,34.1,121.5z"/>
	<linearGradient id="SVGID_4_" gradientUnits="userSpaceOnUse" x1="93.279" y1="301.5293" x2="-33.43" y2="101.7191">
		<stop  offset="4.450300e-02" style="stop-color:#000000"/>
		<stop  offset="9.084658e-02" style="stop-color:#1E1E1E"/>
		<stop  offset="0.2047" style="stop-color:#616161"/>
		<stop  offset="0.3127" style="stop-color:#999999"/>
		<stop  offset="0.4118" style="stop-color:#C5C5C5"/>
		<stop  offset="0.5002" style="stop-color:#E5E5E5"/>
		<stop  offset="0.5746" style="stop-color:#F8F8F8"/>
		<stop  offset="0.626" style="stop-color:#FFFFFF"/>
	</linearGradient>
	<circle class="st3" cx="34.1" cy="208.1" r="84.8"/>
</g>
<g>
	<g>
		<radialGradient id="SVGID_5_" cx="39.8894" cy="220.8644" r="84.9997" gradientUnits="userSpaceOnUse">
			<stop  offset="0" style="stop-color:#000000"/>
			<stop  offset="0.2057" style="stop-color:#303030"/>
			<stop  offset="0.6704" style="stop-color:#A7A7A7"/>
			<stop  offset="1" style="stop-color:#FFFFFF"/>
		</radialGradient>
		<path class="st4" d="M39.9,135.9c-46.9,0-85,38.1-85,85c0,46.9,38.1,85,85,85c46.9,0,85-38.1,85-85
			C124.9,173.9,86.8,135.9,39.9,135.9z"/>
		<radialGradient id="SVGID_6_" cx="36.21" cy="213.6013" r="76.333" gradientUnits="userSpaceOnUse">
			<stop  offset="0.1951" style="stop-color:#000000"/>
			<stop  offset="0.3651" style="stop-color:#404040"/>
			<stop  offset="0.5963" style="stop-color:#919191"/>
			<stop  offset="0.7866" style="stop-color:#CCCCCC"/>
			<stop  offset="0.9261" style="stop-color:#F1F1F1"/>
			<stop  offset="1" style="stop-color:#FFFFFF"/>
		</radialGradient>
		<path class="st5" d="M36.2,137.3c-42.2,0-76.3,34.2-76.3,76.3c0,42.2,34.2,76.3,76.3,76.3c42.2,0,76.3-34.2,76.3-76.3
			C112.5,171.4,78.4,137.3,36.2,137.3z"/>
		<radialGradient id="SVGID_7_" cx="36.21" cy="209.6992" r="71.3149" gradientUnits="userSpaceOnUse">
			<stop  offset="0.6203" style="stop-color:#000000"/>
			<stop  offset="0.6541" style="stop-color:#070707"/>
			<stop  offset="0.7025" style="stop-color:#1A1A1A"/>
			<stop  offset="0.7598" style="stop-color:#393939"/>
			<stop  offset="0.8238" style="stop-color:#646464"/>
			<stop  offset="0.8935" style="stop-color:#9C9C9C"/>
			<stop  offset="0.9667" style="stop-color:#DEDEDE"/>
			<stop  offset="1" style="stop-color:#FFFFFF"/>
		</radialGradient>
		<path class="st6" d="M36.2,138.4c-39.4,0-71.3,31.9-71.3,71.3c0,39.4,31.9,71.3,71.3,71.3c39.4,0,71.3-31.9,71.3-71.3
			C107.5,170.3,75.6,138.4,36.2,138.4z"/>
	</g>
	<g>
		<linearGradient id="SVGID_8_" gradientUnits="userSpaceOnUse" x1="69.3976" y1="258.6165" x2="-31.8156" y2="99.0112">
			<stop  offset="0" style="stop-color:#AB1B0B"/>
			<stop  offset="0.3814" style="stop-color:#D11A09"/>
			<stop  offset="0.7817" style="stop-color:#F21907"/>
			<stop  offset="1" style="stop-color:#FF1906"/>
		</linearGradient>
		<circle class="st7" cx="34.4" cy="203.5" r="66.2"/>
		<linearGradient id="SVGID_9_" gradientUnits="userSpaceOnUse" x1="-9.8423" y1="153.1063" x2="79.4163" y2="254.6707">
			<stop  offset="0" style="stop-color:#FB5344"/>
			<stop  offset="0.1355" style="stop-color:#F24E3F"/>
			<stop  offset="0.3565" style="stop-color:#DA4233"/>
			<stop  offset="0.6355" style="stop-color:#B22E1F"/>
			<stop  offset="0.9587" style="stop-color:#7C1204"/>
			<stop  offset="1" style="stop-color:#740E00"/>
		</linearGradient>
		<path class="st8" d="M34.4,271.1c-37.3,0-67.6-30.3-67.6-67.6c0-37.3,30.3-67.6,67.6-67.6s67.6,30.3,67.6,67.6
			C102.1,240.8,71.7,271.1,34.4,271.1z M34.4,138.6c-35.8,0-64.9,29.1-64.9,64.9s29.1,64.9,64.9,64.9c35.8,0,64.9-29.1,64.9-64.9
			S70.2,138.6,34.4,138.6z"/>
		<linearGradient id="SVGID_10_" gradientUnits="userSpaceOnUse" x1="79.1376" y1="274.1351" x2="-18.9869" y2="119.4005">
			<stop  offset="0.4253" style="stop-color:#FFFFFF"/>
			<stop  offset="0.4722" style="stop-color:#F8F8F8"/>
			<stop  offset="0.54" style="stop-color:#E5E5E5"/>
			<stop  offset="0.6206" style="stop-color:#C5C5C5"/>
			<stop  offset="0.7109" style="stop-color:#999999"/>
			<stop  offset="0.8094" style="stop-color:#616161"/>
			<stop  offset="0.9132" style="stop-color:#1E1E1E"/>
			<stop  offset="0.9555" style="stop-color:#000000"/>
		</linearGradient>
		<circle class="st9" cx="34.3" cy="203.5" r="64.2"/>
	</g>
</g>
<g>
	<radialGradient id="SVGID_11_" cx="262.9073" cy="229.1236" r="118.9995" gradientUnits="userSpaceOnUse">
		<stop  offset="0.4304" style="stop-color:#000000"/>
		<stop  offset="0.4555" style="stop-color:#191919"/>
		<stop  offset="0.5157" style="stop-color:#4E4E4E"/>
		<stop  offset="0.5782" style="stop-color:#7D7D7D"/>
		<stop  offset="0.6419" style="stop-color:#A5A5A5"/>
		<stop  offset="0.7068" style="stop-color:#C6C6C6"/>
		<stop  offset="0.7735" style="stop-color:#DFDFDF"/>
		<stop  offset="0.8427" style="stop-color:#F1F1F1"/>
		<stop  offset="0.9159" style="stop-color:#FCFCFC"/>
		<stop  offset="1" style="stop-color:#FFFFFF"/>
	</radialGradient>
	<path class="st10" d="M262.9,110.1c-65.7,0-119,53.3-119,119c0,65.7,53.3,119,119,119c65.7,0,119-53.3,119-119
		C381.9,163.4,328.6,110.1,262.9,110.1z"/>
	<linearGradient id="SVGID_12_" gradientUnits="userSpaceOnUse" x1="295.743" y1="280.0556" x2="161.9166" y2="69.0219">
		<stop  offset="0" style="stop-color:#FFFFFF"/>
		<stop  offset="1" style="stop-color:#F1F1F1"/>
	</linearGradient>
	<circle class="st11" cx="249.5" cy="207.2" r="87.6"/>
	<linearGradient id="SVGID_13_" gradientUnits="userSpaceOnUse" x1="187.9408" y1="143.778" x2="312.6467" y2="272.1575">
		<stop  offset="0.1667" style="stop-color:#FFFFFF"/>
		<stop  offset="0.3194" style="stop-color:#FBFBFB"/>
		<stop  offset="0.4802" style="stop-color:#EEEEEE"/>
		<stop  offset="0.6447" style="stop-color:#D9D9D9"/>
		<stop  offset="0.8107" style="stop-color:#BCBCBC"/>
		<stop  offset="0.8676" style="stop-color:#B0B0B0"/>
	</linearGradient>
	<path class="st12" d="M249.5,296.7c-49.4,0-89.5-40.2-89.5-89.5s40.2-89.5,89.5-89.5c49.4,0,89.5,40.2,89.5,89.5
		S298.9,296.7,249.5,296.7z M249.5,121.5c-47.2,0-85.7,38.4-85.7,85.7c0,47.2,38.4,85.7,85.7,85.7s85.7-38.4,85.7-85.7
		C335.2,159.9,296.8,121.5,249.5,121.5z"/>
	<linearGradient id="SVGID_14_" gradientUnits="userSpaceOnUse" x1="308.7557" y1="301.5293" x2="182.0467" y2="101.7191">
		<stop  offset="4.450300e-02" style="stop-color:#000000"/>
		<stop  offset="9.084658e-02" style="stop-color:#1E1E1E"/>
		<stop  offset="0.2047" style="stop-color:#616161"/>
		<stop  offset="0.3127" style="stop-color:#999999"/>
		<stop  offset="0.4118" style="stop-color:#C5C5C5"/>
		<stop  offset="0.5002" style="stop-color:#E5E5E5"/>
		<stop  offset="0.5746" style="stop-color:#F8F8F8"/>
		<stop  offset="0.626" style="stop-color:#FFFFFF"/>
	</linearGradient>
	<circle class="st13" cx="249.5" cy="208.1" r="84.8"/>
</g>
<g>
	<g>
		<radialGradient id="SVGID_15_" cx="255.0977" cy="218.0369" r="84.9996" gradientUnits="userSpaceOnUse">
			<stop  offset="0" style="stop-color:#000000"/>
			<stop  offset="0.2057" style="stop-color:#303030"/>
			<stop  offset="0.6704" style="stop-color:#A7A7A7"/>
			<stop  offset="1" style="stop-color:#FFFFFF"/>
		</radialGradient>
		<path class="st14" d="M255.1,133c-46.9,0-85,38.1-85,85c0,46.9,38.1,85,85,85c46.9,0,85-38.1,85-85C340.1,171.1,302,133,255.1,133
			z"/>
		<radialGradient id="SVGID_16_" cx="251.4183" cy="210.7737" r="76.3329" gradientUnits="userSpaceOnUse">
			<stop  offset="0.1951" style="stop-color:#000000"/>
			<stop  offset="0.3651" style="stop-color:#404040"/>
			<stop  offset="0.5963" style="stop-color:#919191"/>
			<stop  offset="0.7866" style="stop-color:#CCCCCC"/>
			<stop  offset="0.9261" style="stop-color:#F1F1F1"/>
			<stop  offset="1" style="stop-color:#FFFFFF"/>
		</radialGradient>
		<path class="st15" d="M251.4,134.4c-42.2,0-76.3,34.2-76.3,76.3c0,42.2,34.2,76.3,76.3,76.3c42.2,0,76.3-34.2,76.3-76.3
			C327.8,168.6,293.6,134.4,251.4,134.4z"/>
		<radialGradient id="SVGID_17_" cx="251.4183" cy="206.8717" r="71.3148" gradientUnits="userSpaceOnUse">
			<stop  offset="0.6203" style="stop-color:#000000"/>
			<stop  offset="0.6541" style="stop-color:#070707"/>
			<stop  offset="0.7025" style="stop-color:#1A1A1A"/>
			<stop  offset="0.7598" style="stop-color:#393939"/>
			<stop  offset="0.8238" style="stop-color:#646464"/>
			<stop  offset="0.8935" style="stop-color:#9C9C9C"/>
			<stop  offset="0.9667" style="stop-color:#DEDEDE"/>
			<stop  offset="1" style="stop-color:#FFFFFF"/>
		</radialGradient>
		<path class="st16" d="M251.4,135.6c-39.4,0-71.3,31.9-71.3,71.3c0,39.4,31.9,71.3,71.3,71.3c39.4,0,71.3-31.9,71.3-71.3
			C322.7,167.5,290.8,135.6,251.4,135.6z"/>
	</g>
	<linearGradient id="SVGID_18_" gradientUnits="userSpaceOnUse" x1="282.9626" y1="257.1925" x2="181.7495" y2="97.5872">
		<stop  offset="0" style="stop-color:#198200"/>
		<stop  offset="0.1586" style="stop-color:#2B9800"/>
		<stop  offset="0.4821" style="stop-color:#4CC000"/>
		<stop  offset="0.6502" style="stop-color:#59CF00"/>
	</linearGradient>
	<circle class="st17" cx="248" cy="202.1" r="66.2"/>
	<linearGradient id="SVGID_19_" gradientUnits="userSpaceOnUse" x1="203.7227" y1="151.6824" x2="292.9813" y2="253.2467">
		<stop  offset="0" style="stop-color:#5CD900"/>
		<stop  offset="1" style="stop-color:#168500"/>
	</linearGradient>
	<path class="st18" d="M248,269.7c-37.3,0-67.6-30.3-67.6-67.6c0-37.3,30.3-67.6,67.6-67.6c37.3,0,67.6,30.3,67.6,67.6
		C315.6,239.4,285.3,269.7,248,269.7z M248,137.2c-35.8,0-64.9,29.1-64.9,64.9s29.1,64.9,64.9,64.9c35.8,0,64.9-29.1,64.9-64.9
		S283.8,137.2,248,137.2z"/>
	<linearGradient id="SVGID_20_" gradientUnits="userSpaceOnUse" x1="292.804" y1="272.7112" x2="194.6796" y2="117.9766">
		<stop  offset="0.3664" style="stop-color:#FFFFFF"/>
		<stop  offset="0.4215" style="stop-color:#F8F8F8"/>
		<stop  offset="0.5039" style="stop-color:#E3E3E3"/>
		<stop  offset="0.6034" style="stop-color:#C2C2C2"/>
		<stop  offset="0.7162" style="stop-color:#939393"/>
		<stop  offset="0.8403" style="stop-color:#585858"/>
		<stop  offset="0.972" style="stop-color:#101010"/>
		<stop  offset="1" style="stop-color:#000000"/>
	</linearGradient>
	<path class="st19" d="M312.2,202c0,35.5-28.7,64.2-64.2,64.2c-34.9,0-64.1-29.2-64.1-64.1c0-35.5,28.7-64.2,64.2-64.2
		C282.9,137.9,312.1,167.2,312.2,202z"/>
</g>
<g>
	<path class="st20" d="M63.7,37.1c-4.6-2.6-10.5-2.3-15.6-1.8c-2.6,0.3-5,0.9-7.1,2.6c-2.9,2.2-3.4,6.4-2.1,9.4
		c0.5,1.3,1.7,2.2,2.7,2.8c1.1,0.7,2.2,1.1,3.2,1.4c1,0.3,1.8,0.5,2.5,0.7c1.4,0.3,2.2,0.5,2.1,0.6c0,0.1-0.8,0.3-2.3,0.2
		c-0.7,0-1.7-0.1-2.7-0.3c-1.1-0.2-2.3-0.5-3.6-1.2c-2.3-1.2-3.5-3.1-4-4.1c-0.5,1.2-1,2.3-1.6,3.1c-0.8,1.3-1.6,2.3-2.2,2.9
		c-0.6,0.6-1,0.9-1.2,0.8c-0.2-0.1,0-0.6,0.3-1.4c0.3-0.8,0.8-1.9,1.4-3.2c0.6-1.3,1.1-2.9,1.4-4.7c0.3-1.8,0.2-3.8-0.1-6
		c-0.6-4.3-2.2-8-3.4-10.7c-1.2-2.7-2-4.4-1.7-4.6c0.3-0.2,1.7,1.1,3.4,3.7c0.2,0.3,0.4,0.6,0.6,1c0-0.1,0-0.3,0-0.4
		c0.3-3.1,1.8-5.6,4.1-7.5c-1.5-0.6-2.9-1.7-3.8-3.2c-2.2-3.4-1.8-7.6,1.1-11.2C36.9,4,39,2.9,42.8,2c-2.9-0.1-5.9-0.3-7.9,0
		c-1.5,0.2-3.3,0.4-5.2,0.9c-0.5,0.1-0.9,0.3-1.4,0.5c-0.5,0.2-1,0.4-1.4,0.6c-1,0.4-1.9,1-2.8,1.6c-0.9,0.6-1.8,1.3-2.5,2.1
		c-0.4,0.4-0.8,0.7-1.1,1.1c-0.4,0.4-0.6,0.7-0.9,1.1c-1.1,1.5-1.9,3.2-2.6,4.6c-0.7,1.4-1.4,2.5-1.9,3.3c-0.6,0.7-1,1.1-1.1,1
		c-0.2-0.1,0-0.6,0.2-1.4c0.3-0.8,0.6-2,1.1-3.5c0.5-1.4,1.1-3.2,2.2-5c-0.7,0-1.6-0.2-2.3-0.1c-1.8,0.1-3.4,1.1-4.9,2.2
		C9.4,11.3,8.6,12,8,12.8C5.6,15.7,4.9,19.4,4.3,23c-0.5,2.6-0.9,5.2-1.2,7.9c-0.3,2.6-0.5,5.2,0,7.8C3.3,39.9,3.7,41,4.2,42
		c1,2,2.3,3.7,4.3,4.8c0.5,0.3,1.1,0.5,1.7,0.7c0.1,0,0.4,0.1,0.7,0.1c0-0.1,0-0.3,0-0.4c-0.1-1.7-0.1-3.3,0-4.7
		c0.1-2.8,0.4-4.9,0.6-6.4c0.2-1.4,0.3-2.2,0.5-2.2c0.1,0,0.3,0.8,0.4,2.2c0.1,1.5,0.1,3.6,0.2,6.3c0.1,1.4,0.1,2.9,0.4,4.5
		c0.1,0.8,0.3,1.6,0.5,2.4c0.2,0.7,0.7,1.5,1.2,2.3c1,1.6,2.3,3.1,3.8,4.8c0.7,0.8,1.5,1.7,2.2,2.6c0.8,0.9,1.6,1.8,2.3,2.9
		c0.8,1.1,1.5,2.4,1.8,3.9c0.4,1.6,0.3,2.9,0.3,4.3c-0.1,2.8-0.3,5.6-0.6,8.5l-1,8.9c0,0.4-0.1,0.8-0.1,1c0,0.1,0,0.3,0,0.5l0,0.5
		c0,0.7,0.1,1.4,0.3,1.9c0.2,0.6,0.4,0.9,0.6,1.1c0.5,0.4,1,0.7,1.6,0.9c1.1,0.4,2.5,0.4,3.8,0.1c0.7-0.2,1.4-0.4,2-0.7
		c0.2-0.1,0.3-0.2,0.5-0.2c0.2-0.1,0.3-0.1,0.4-0.3c0.3-0.2,0.6-0.4,0.9-0.6c2.3-1.8,4.1-4.5,5.1-7.6c0.5-1.5,0.9-3.2,0.8-4.6
		c0-1.7-0.2-3.4-0.5-5.1c-0.3-1.7-0.7-3.4-1.2-5.2c-0.5-1.7-1.1-3.4-1.7-5.2c-0.2-0.5-0.3-0.9-0.5-1.4c-0.1-0.5-0.3-1-0.4-1.8
		c-0.1-1.2-0.2-2.2,0.8-2.9c0.7-0.5,1.7-1.1,2.4-1c16.2,0.9,19.8,1.3,25-1.7c1.2-0.7,2.8-2,3.9-3.5C70.9,46.6,69.1,40.1,63.7,37.1z"
		/>
	<path class="st20" d="M36.7,28.3c-0.3,2.4-0.2,5.2,2.4,7.6c0,0,0.1-0.1,0.1-0.1c3.5-4,17.9-4.5,24-2.4c1.5-0.2,4.4-1.1,4.8-5.1
		c0.2-2.4-0.3-4.2-1.5-5.6c-1.7-2-5.1-3.2-9.6-3.4C49.8,19,37.7,19.7,36.7,28.3z"/>
	<path class="st20" d="M37.4,7.8c-2.1,2.7-2.5,5.7-1,8c0.9,1.5,2.9,2.6,4.5,2.9c3.4-1.6,7.9-2.4,13.4-2.4c0.9,0,1.8,0,2.7,0.1
		c1.6,0.1,3.1,0.3,4.5,0.6c0.9-0.9,2.7-3.2,1.7-7.7c-0.9-3.9-9-6.1-15.1-5.4C41.7,4.7,39.1,5.6,37.4,7.8z"/>
</g>
<g>
	<path class="st21" d="M254.3,97.6c-2.9-3.6-3.3-7.8-1.1-11.1c1-1.5,2.3-2.6,3.8-3.2c-2.4-1.9-3.8-4.4-4.1-7.4c0-0.1,0-0.2,0-0.4
		c-0.2,0.4-0.4,0.7-0.6,1c-1.7,2.5-3.1,3.8-3.4,3.7c-0.3-0.2,0.5-1.9,1.7-4.6c1.2-2.7,2.8-6.4,3.4-10.7c0.3-2.2,0.4-4.2,0.1-6
		c-0.3-1.8-0.8-3.4-1.4-4.7c-0.6-1.3-1.1-2.4-1.4-3.2c-0.3-0.8-0.4-1.3-0.3-1.4c0.2-0.1,0.6,0.2,1.1,0.8c0.6,0.6,1.4,1.6,2.2,2.9
		c0.5,0.9,1.1,1.9,1.6,3.1c0.5-1,1.7-2.9,4-4.1c1.3-0.7,2.6-0.9,3.6-1.2c1.1-0.2,2-0.3,2.7-0.3c1.5-0.1,2.2,0.1,2.2,0.2
		c0,0.1-0.7,0.3-2.1,0.6c-0.7,0.2-1.6,0.4-2.5,0.7c-1,0.3-2.1,0.7-3.2,1.4c-1.1,0.6-2.2,1.6-2.7,2.8c-1.2,3-0.7,7.1,2.1,9.3
		c2.1,1.7,4.5,2.3,7.1,2.6c5.1,0.5,10.9,0.8,15.5-1.8c5.4-3,7.1-9.4,3.7-14.5c-1-1.5-2.7-2.8-3.8-3.5c-5.2-2.9-8.8-2.6-24.9-1.6
		c-0.7,0-1.7-0.5-2.4-1c-1-0.7-0.9-1.7-0.8-2.9c0.1-0.8,0.2-1.3,0.4-1.8c0.1-0.5,0.3-1,0.5-1.4c0.6-1.8,1.2-3.5,1.7-5.2
		c0.5-1.7,0.9-3.4,1.2-5.1c0.3-1.7,0.4-3.4,0.5-5.1c0-1.4-0.3-3.1-0.8-4.6c-1-3-2.8-5.8-5.1-7.5c-0.3-0.2-0.6-0.4-0.9-0.6
		c-0.2-0.1-0.3-0.2-0.4-0.3c-0.1-0.1-0.3-0.2-0.5-0.2c-0.6-0.3-1.3-0.5-2-0.7c-1.4-0.3-2.7-0.3-3.8,0.1c-0.6,0.2-1.1,0.5-1.6,0.8
		c-0.2,0.2-0.4,0.5-0.6,1.1c-0.2,0.6-0.2,1.2-0.3,1.9l0,0.5c0,0.2,0,0.4,0,0.5c0,0.3,0,0.7,0.1,1l1,8.9c0.3,2.9,0.5,5.7,0.6,8.5
		c0,1.4,0,2.8-0.3,4.3c-0.4,1.5-1.1,2.8-1.8,3.9c-0.8,1.1-1.6,2-2.3,2.9c-0.7,0.9-1.5,1.8-2.2,2.6c-1.4,1.7-2.8,3.2-3.8,4.8
		c-0.5,0.8-0.9,1.6-1.2,2.3c-0.3,0.8-0.4,1.6-0.5,2.4c-0.2,1.6-0.3,3.1-0.4,4.4c-0.1,2.7-0.1,4.9-0.2,6.3c-0.1,1.5-0.2,2.2-0.4,2.2
		c-0.1,0-0.3-0.8-0.5-2.2c-0.2-1.4-0.4-3.6-0.6-6.3c-0.1-1.4-0.1-2.9,0-4.7c0-0.1,0-0.3,0-0.4c-0.3,0.1-0.7,0.1-0.7,0.1
		c-0.6,0.1-1.2,0.4-1.7,0.7c-2,1.1-3.3,2.8-4.3,4.8c-0.5,1-0.9,2.1-1.1,3.3c-0.5,2.5-0.2,5.2,0,7.7c0.3,2.6,0.7,5.2,1.1,7.8
		c0.6,3.6,1.3,7.3,3.7,10.2c0.6,0.7,1.3,1.5,2.1,2.1c1.4,1.1,3,2,4.8,2.2c0.7,0.1,1.6-0.2,2.2-0.1c-1.1-1.8-1.7-3.6-2.2-5
		c-0.5-1.5-0.9-2.7-1.1-3.5c-0.2-0.8-0.4-1.3-0.2-1.4c0.2-0.1,0.6,0.2,1.1,0.9c0.6,0.7,1.2,1.9,1.9,3.2c0.7,1.4,1.5,3.1,2.6,4.6
		c0.3,0.4,0.6,0.7,0.9,1.1c0.3,0.4,0.7,0.7,1.1,1.1c0.8,0.7,1.6,1.4,2.5,2c0.9,0.6,1.9,1.2,2.8,1.6c0.5,0.2,1,0.4,1.4,0.6
		c0.5,0.2,0.9,0.3,1.4,0.5c1.9,0.5,3.7,0.7,5.2,0.9c2,0.2,5,0,7.9,0C258,100.8,255.9,99.6,254.3,97.6z"/>
	<path class="st21" d="M280.5,86.8c-1.4,0.3-2.9,0.5-4.5,0.6c-0.9,0-1.8,0.1-2.7,0.1c-5.5,0-10-0.8-13.4-2.4
		c-1.6,0.2-3.6,1.4-4.5,2.9c-1.5,2.4-1.2,5.4,1,8c1.7,2.1,4.3,3.1,10.8,3.9c6.1,0.8,14.1-1.4,15-5.4C283.2,90,281.4,87.7,280.5,86.8
		z"/>
	<path class="st21" d="M282.2,70.5c-6.2,2.1-20.5,1.6-23.9-2.4c0,0-0.1-0.1-0.1-0.1c-2.6,2.4-2.7,5.2-2.4,7.6
		c0.9,8.5,13,9.2,20.1,8.9c4.5-0.2,7.8-1.4,9.5-3.3c1.2-1.4,1.7-3.2,1.5-5.6C286.5,71.5,283.6,70.7,282.2,70.5z"/>
</g>
<g>
	<path class="st22" d="M64.1,55.9c-8.4,2.8-16.8,1.3-25.6,0.9c-1,7.9,3.5,18.5,1.7,26.3c-1.6,7.3-9.8,12.4-17.1,10.7
		c0-7.7-0.1-15.4-0.1-23.1c0-2.3,0-4.7-0.6-6.9C19.6,53.6,9,51.4,4.2,42c-4.4-8.6-3.1-20.9,2.6-28.7c1.1-1.5,2.4-3.1,4.1-4
		c1.9-1,4.2-1.1,6.3-1.4c3.9-0.7,7.6-4.6,11.4-5.6C39-0.5,36-0.4,46.2,2.7C46.7,2.8,57.4,3,57.8,3.3c0.8,0.8,7.2,7,7.1,8.1
		c-0.2,3.5-1.2,6.9,0.5,10c1.7,3.1,3.1,6.9,1.5,10.1c-0.6,1.3-1.7,2.5-1.5,3.9c0.1,0.8,0.6,1.4,1,2c2.5,3.9,3.4,8.9,2.4,13.5
		c-0.3,1.2-0.7,2.4-1.6,3.3C66.5,55.1,65.3,55.6,64.1,55.9z"/>
	<path class="st23" d="M71,28.5c0.5-3.1-0.5-5.8-2.2-7.8c-1.1-1.2-2.5-2.2-4.3-2.9c1.3-1.5,2.6-4.3,1.5-9.1C64.8,3.4,57,1,50.7,1
		c-1,0-1.9,0.1-2.8,0.2c-0.6,0.1-1.1,0.1-1.7,0.2c-1.1-0.5-3.5-1.1-8-1.4c-1.6-0.1-7,0-9.1,0.4c-0.5,0.1-1.1,0.3-1.7,0.4
		c-0.5,0.2-1.1,0.4-1.6,0.6c-1.1,0.5-2.2,1.1-3.3,1.8c-0.8,0.6-1.6,1.2-2.3,1.9c-1.1,0-2.6,0-2.7,0C15,5,12.1,5.6,10,7.1
		C9.5,7.4,9.1,7.8,8.7,8.2C8.4,8.4,8,8.6,7.8,8.9c-0.9,1-1.8,2-2.6,3.1c-0.8,1-1.3,2.2-1.8,3.4c-1.8,4.3-2.5,9-3.1,13.6
		C0.1,30.3,0,31.7,0,33c0,2.5-0.1,5.2,0.3,7.7c0.4,2.2,1.5,4.1,2.9,5.9c0.8,1,1.7,2.2,2.9,2.8C7.2,50,8.4,50.5,9.5,51
		c0.2,0.1,1.7,0.4,2.4,0.5c0.2,0.4,0.4,0.9,0.7,1.3c1,1.8,2.4,3.5,3.7,5.3c0.7,0.9,1.4,1.7,2.1,2.7c0.7,0.9,1.5,1.8,2.1,2.8
		c0.6,0.9,1.1,1.9,1.3,3c0.2,1,0.2,2.3,0.1,3.5c-0.1,2.6-0.5,5.4-0.8,8.2L20,87.2c0,0.4-0.1,0.8-0.1,1.3c0,0.3,0,0.5,0,0.7l0,0.6
		c0,0.9,0.1,1.8,0.4,2.7c0.1,0.5,0.3,1,0.6,1.5c0.3,0.5,0.7,1.1,1.2,1.5c0.8,0.6,1.7,1.1,2.7,1.5c1.9,0.7,4,0.7,5.9,0.2
		c0.9-0.2,1.9-0.5,2.7-0.9c0.2-0.1,0.4-0.2,0.7-0.3c0.2-0.1,0.5-0.3,0.7-0.4c0.4-0.3,0.8-0.5,1.2-0.8c3.1-2.3,5.3-5.7,6.6-9.4
		c0.6-1.8,1.1-3.7,1.1-5.9c0-1.9-0.2-3.8-0.5-5.7c-0.3-1.9-0.7-3.8-1.3-5.6c-0.5-1.8-1.2-3.7-1.8-5.4c-0.1-0.4-0.4-0.8-0.4-1.3
		c0-0.2-0.2-1.9-0.1-2c1.8-1.8,7.3,2.1,21.7-1c1.8-0.4,5.5-1.6,8.3-5.1c3.8-4.7,3.4-9.3,1.4-13c-1.5-2.8-2.7-4.2-4.7-5.4
		C68.4,33.8,70.4,32,71,28.5z M42.8,2c-3.9,0.8-5.9,2-7.6,4.1c-2.9,3.6-3.3,7.8-1.1,11.2c1,1.5,2.3,2.6,3.8,3.2
		c-2.4,1.9-3.8,4.4-4.1,7.5c0,0.1,0,0.2,0,0.4c-0.2-0.4-0.4-0.7-0.6-1c-1.7-2.6-3.1-3.9-3.4-3.7c-0.3,0.2,0.5,1.9,1.7,4.6
		c1.2,2.7,2.8,6.4,3.4,10.7c0.3,2.2,0.4,4.2,0.1,6c-0.3,1.8-0.8,3.4-1.4,4.7c-0.6,1.3-1.1,2.4-1.4,3.2c-0.3,0.8-0.4,1.3-0.3,1.4
		c0.2,0.1,0.6-0.2,1.2-0.8c0.6-0.6,1.4-1.6,2.2-2.9c0.5-0.9,1.1-1.9,1.6-3.1c0.5,1,1.7,2.9,4,4.1c1.3,0.7,2.6,0.9,3.6,1.2
		c1.1,0.2,2,0.3,2.7,0.3c1.5,0.1,2.3-0.1,2.3-0.2c0-0.1-0.7-0.3-2.1-0.6c-0.7-0.2-1.6-0.4-2.5-0.7c-1-0.3-2.1-0.7-3.2-1.4
		c-1.1-0.6-2.2-1.6-2.7-2.8c-1.3-3-0.7-7.1,2.1-9.4c2.1-1.7,4.5-2.3,7.1-2.6c5.1-0.5,11-0.8,15.6,1.8c5.5,3,7.2,9.4,3.7,14.6
		c-1,1.5-2.7,2.8-3.9,3.5c-5.2,3-8.8,2.6-25,1.7c-0.7,0-1.7,0.5-2.4,1c-1,0.7-0.9,1.7-0.8,2.9c0.1,0.8,0.2,1.3,0.4,1.8
		c0.1,0.5,0.3,1,0.5,1.4c0.6,1.8,1.2,3.5,1.7,5.2c0.5,1.7,0.9,3.4,1.2,5.2c0.3,1.7,0.4,3.4,0.5,5.1c0,1.4-0.3,3.1-0.8,4.6
		c-1,3-2.8,5.8-5.1,7.6c-0.3,0.2-0.6,0.4-0.9,0.6c-0.2,0.1-0.3,0.2-0.4,0.3c-0.2,0.1-0.3,0.2-0.5,0.2c-0.6,0.3-1.3,0.5-2,0.7
		c-1.4,0.3-2.7,0.3-3.8-0.1c-0.6-0.2-1.1-0.5-1.6-0.9c-0.2-0.2-0.4-0.5-0.6-1.1c-0.2-0.6-0.2-1.2-0.3-1.9l0-0.5c0-0.2,0-0.4,0-0.5
		c0-0.3,0-0.7,0.1-1l1-8.9c0.3-2.9,0.5-5.7,0.6-8.5c0-1.4,0-2.8-0.3-4.3c-0.4-1.5-1.1-2.8-1.8-3.9c-0.8-1.1-1.6-2-2.3-2.9
		c-0.7-0.9-1.5-1.8-2.2-2.6c-1.5-1.7-2.8-3.2-3.8-4.8c-0.5-0.8-0.9-1.6-1.2-2.3c-0.3-0.8-0.4-1.6-0.5-2.4c-0.2-1.6-0.3-3.1-0.4-4.5
		c-0.1-2.7-0.1-4.9-0.2-6.3c-0.1-1.5-0.2-2.2-0.4-2.2c-0.1,0-0.3,0.8-0.5,2.2c-0.2,1.4-0.4,3.6-0.6,6.4c-0.1,1.4-0.1,3,0,4.7
		c0,0.1,0,0.3,0,0.4c-0.3-0.1-0.7-0.1-0.7-0.1c-0.6-0.1-1.2-0.4-1.7-0.7c-2-1.1-3.3-2.8-4.3-4.8c-0.5-1-0.9-2.2-1.1-3.3
		c-0.5-2.6-0.2-5.2,0-7.8c0.3-2.6,0.7-5.3,1.2-7.9c0.6-3.6,1.3-7.4,3.7-10.3c0.6-0.8,1.4-1.5,2.1-2.1c1.4-1.1,3-2.1,4.9-2.2
		c0.7-0.1,1.6,0.2,2.3,0.1c-1.1,1.9-1.7,3.6-2.2,5c-0.5,1.5-0.9,2.7-1.1,3.5c-0.2,0.8-0.4,1.3-0.2,1.4c0.2,0.1,0.6-0.2,1.1-1
		c0.6-0.7,1.2-1.9,1.9-3.3c0.7-1.4,1.5-3.1,2.6-4.6c0.3-0.4,0.6-0.7,0.9-1.1c0.4-0.4,0.7-0.8,1.1-1.1c0.8-0.7,1.6-1.4,2.5-2.1
		c0.9-0.6,1.9-1.2,2.8-1.6c0.5-0.2,1-0.4,1.4-0.6c0.5-0.2,0.9-0.3,1.4-0.5c1.9-0.5,3.7-0.7,5.2-0.9C36.9,1.8,39.9,2,42.8,2z
		 M61.6,16.9c-1.4-0.3-2.9-0.5-4.5-0.6c-0.9,0-1.8-0.1-2.7-0.1c-5.5,0-10.1,0.8-13.4,2.4c-1.6-0.2-3.6-1.4-4.5-2.9
		c-1.5-2.4-1.2-5.4,1-8c1.7-2.1,4.4-3.1,10.9-3.9c6.1-0.8,14.2,1.5,15.1,5.4C64.3,13.7,62.5,16,61.6,16.9z M68,28.3
		c-0.4,4-3.3,4.9-4.8,5.1c-6.2-2.1-20.6-1.6-24,2.4c0,0-0.1,0.1-0.1,0.1c-2.6-2.4-2.7-5.2-2.4-7.6c0.9-8.5,13.1-9.3,20.2-9
		c4.5,0.2,7.8,1.4,9.6,3.4C67.8,24.1,68.2,25.9,68,28.3z"/>
</g>
<g>
	<path class="st22" d="M283,48c-8.3-2.8-17.1-4-25.9-3.5c-1-7.9,3.9-15.8,2.2-23.6c-1.6-7.3-9.8-12.4-17-10.7c0,7.7-0.1,15.4-0.1,23
		c0,2.3,0,4.6-0.6,6.9c-2.7,10.2-15.8,14-20.6,23.4c-4.4,8.6-0.5,19.2,5.2,27c1.1,1.5,2.4,3.1,4.1,4c1.9,1,4.2,1.1,6.3,1.4
		c3.9,0.7,7.5,4.6,11.4,5.6c10.3,2.7,12.8,2.7,23-0.3c0.5-0.1,5.7-0.4,6-0.7c0.8-0.8,7.2-7,7.1-8.1c-0.2-3.5-1.2-6.9,0.5-10
		c1.7-3.1,3.1-6.9,1.5-10c-0.6-1.3-1.7-2.5-1.5-3.8c0.1-0.7,0.6-1.4,1-2c2.5-3.9,3.4-8.9,2.4-13.4c-0.3-1.2-0.7-2.4-1.5-3.3
		C285.4,48.8,284.2,48.4,283,48z"/>
	<path class="st23" d="M285.2,68.9c1.9-1.3,3.2-2.6,4.6-5.4c2-3.8,2.3-8.3-1.4-13c-2.8-3.5-6.5-4.7-8.3-5.1
		c-14.4-3.1-19.8,0.8-21.6-1c-0.1-0.1,0.1-1.8,0.1-2c0-0.4,0.3-0.8,0.4-1.2c0.6-1.7,1.2-3.6,1.8-5.4c0.5-1.8,1-3.7,1.3-5.6
		c0.3-1.9,0.5-3.8,0.5-5.7c0-2.2-0.5-4.1-1.1-5.9c-1.3-3.6-3.4-7-6.5-9.3c-0.4-0.3-0.8-0.6-1.2-0.8c-0.2-0.1-0.5-0.3-0.7-0.4
		c-0.2-0.1-0.4-0.2-0.7-0.3c-0.9-0.4-1.8-0.7-2.7-0.9c-1.9-0.4-4-0.5-5.9,0.2c-1,0.3-1.8,0.8-2.6,1.5c-0.5,0.4-0.9,0.9-1.2,1.5
		c-0.3,0.5-0.5,1-0.6,1.5c-0.3,1-0.3,1.9-0.4,2.7l0,0.6c0,0.2,0,0.4,0,0.7c0,0.5,0.1,0.9,0.1,1.3l1.2,8.9c0.4,2.8,0.7,5.6,0.8,8.2
		c0.1,1.3,0.1,2.6-0.1,3.5c-0.2,1-0.7,2-1.3,2.9c-0.6,0.9-1.3,1.9-2.1,2.8c-0.7,1-1.4,1.8-2.1,2.7c-1.4,1.7-2.7,3.4-3.7,5.2
		c-0.2,0.4-0.5,0.9-0.7,1.3c-0.8,0.2-2.3,0.5-2.4,0.5c-1.1,0.5-2.3,1-3.4,1.5c-1.2,0.6-2.1,1.8-2.9,2.8c-1.4,1.7-2.4,3.6-2.9,5.8
		c-0.5,2.5-0.4,5.2-0.3,7.7c0,1.4,0.1,2.7,0.3,4.1c0.5,4.6,1.3,9.2,3.1,13.5c0.5,1.2,1,2.3,1.8,3.3c0.8,1.1,1.7,2.1,2.6,3.1
		c0.3,0.3,0.6,0.5,0.9,0.7c0.5,0.3,0.9,0.8,1.3,1.1c2.1,1.5,5,2,7.5,1.9c0,0,1.6,0,2.6,0c0.7,0.7,1.5,1.3,2.3,1.8
		c1.1,0.7,2.2,1.3,3.3,1.8c0.6,0.2,1.1,0.4,1.6,0.6c0.5,0.2,1.1,0.3,1.7,0.4c2.2,0.4,7.5,0.5,9.1,0.4c4.5-0.3,6.9-0.9,7.9-1.4
		c0.5,0.1,1.1,0.2,1.7,0.2c0.9,0.1,1.8,0.2,2.8,0.2c6.3,0,14-2.3,15.2-7.6c1.1-4.8-0.3-7.6-1.5-9.1c1.8-0.7,3.2-1.7,4.3-2.9
		c1.8-2,2.7-4.7,2.2-7.8C289.2,71.8,287.3,70,285.2,68.9z M253.9,101.7c-1.5-0.2-3.3-0.4-5.2-0.9c-0.5-0.1-0.9-0.3-1.4-0.5
		c-0.5-0.2-1-0.4-1.4-0.6c-1-0.4-1.9-1-2.8-1.6c-0.9-0.6-1.8-1.3-2.5-2c-0.4-0.4-0.8-0.7-1.1-1.1c-0.4-0.4-0.6-0.7-0.9-1.1
		c-1.1-1.5-1.9-3.2-2.6-4.6c-0.7-1.4-1.4-2.5-1.9-3.2c-0.6-0.7-1-1-1.1-0.9c-0.2,0.1,0,0.6,0.2,1.4c0.3,0.8,0.6,2,1.1,3.5
		c0.5,1.4,1.1,3.1,2.2,5c-0.7,0-1.6,0.2-2.2,0.1c-1.8-0.1-3.4-1.1-4.8-2.2c-0.8-0.6-1.5-1.3-2.1-2.1c-2.4-2.9-3.1-6.6-3.7-10.2
		c-0.5-2.6-0.9-5.2-1.1-7.8c-0.3-2.6-0.5-5.2,0-7.7c0.2-1.1,0.6-2.3,1.1-3.3c1-2,2.3-3.7,4.3-4.8c0.5-0.3,1.1-0.5,1.7-0.7
		c0.1,0,0.4-0.1,0.7-0.1c0,0.1,0,0.3,0,0.4c-0.1,1.7-0.1,3.3,0,4.7c0.1,2.8,0.4,4.9,0.6,6.3c0.2,1.4,0.3,2.2,0.5,2.2
		c0.1,0,0.3-0.8,0.4-2.2c0.1-1.5,0.1-3.6,0.2-6.3c0.1-1.4,0.1-2.9,0.4-4.4c0.1-0.8,0.3-1.6,0.5-2.4c0.2-0.7,0.7-1.5,1.2-2.3
		c1-1.5,2.3-3.1,3.8-4.8c0.7-0.8,1.5-1.7,2.2-2.6c0.8-0.9,1.6-1.8,2.3-2.9c0.8-1.1,1.5-2.4,1.8-3.9c0.4-1.6,0.3-2.9,0.3-4.3
		c-0.1-2.8-0.3-5.6-0.6-8.5l-1-8.9c0-0.4-0.1-0.7-0.1-1c0-0.1,0-0.3,0-0.5l0-0.5c0-0.7,0.1-1.4,0.3-1.9c0.2-0.6,0.4-0.9,0.6-1.1
		c0.5-0.4,1-0.7,1.6-0.8c1.1-0.4,2.5-0.4,3.8-0.1c0.7,0.2,1.4,0.4,2,0.7c0.2,0.1,0.3,0.2,0.5,0.2c0.2,0.1,0.3,0.1,0.4,0.3
		c0.3,0.2,0.6,0.4,0.9,0.6c2.3,1.8,4.1,4.5,5.1,7.5c0.5,1.5,0.9,3.1,0.8,4.6c0,1.7-0.2,3.4-0.5,5.1c-0.3,1.7-0.7,3.4-1.2,5.1
		c-0.5,1.7-1.1,3.4-1.7,5.2c-0.2,0.5-0.3,0.9-0.5,1.4c-0.1,0.5-0.3,1-0.4,1.8c-0.1,1.2-0.2,2.2,0.8,2.9c0.7,0.5,1.7,1,2.4,1
		c16.1-0.9,19.7-1.3,24.9,1.6c1.2,0.7,2.8,2,3.8,3.5c3.5,5.1,1.8,11.5-3.7,14.5c-4.6,2.5-10.4,2.3-15.5,1.8
		c-2.6-0.3-4.9-0.9-7.1-2.6c-2.8-2.2-3.4-6.4-2.1-9.3c0.5-1.3,1.6-2.2,2.7-2.8c1.1-0.6,2.2-1.1,3.2-1.4c1-0.3,1.8-0.5,2.5-0.7
		c1.4-0.3,2.1-0.5,2.1-0.6c0-0.1-0.8-0.3-2.2-0.2c-0.7,0-1.6,0.1-2.7,0.3c-1.1,0.2-2.3,0.5-3.6,1.2c-2.3,1.2-3.5,3-4,4.1
		c-0.4-1.2-1-2.3-1.6-3.1c-0.8-1.3-1.6-2.3-2.2-2.9c-0.6-0.6-1-0.9-1.1-0.8c-0.2,0.1,0,0.6,0.3,1.4c0.3,0.8,0.8,1.9,1.4,3.2
		c0.6,1.3,1.1,2.9,1.4,4.7c0.3,1.8,0.2,3.8-0.1,6c-0.6,4.3-2.2,8-3.4,10.7c-1.2,2.7-2,4.4-1.7,4.6c0.3,0.2,1.7-1.1,3.4-3.7
		c0.2-0.3,0.4-0.6,0.6-1c0,0.1,0,0.3,0,0.4c0.3,3.1,1.7,5.6,4.1,7.4c-1.5,0.6-2.8,1.7-3.8,3.2c-2.2,3.4-1.8,7.6,1.1,11.1
		c1.6,2,3.7,3.2,7.5,4C258.9,101.7,255.9,101.9,253.9,101.7z M282.2,94.5c-0.9,3.9-8.9,6.1-15,5.4c-6.5-0.8-9.1-1.8-10.8-3.9
		c-2.1-2.6-2.5-5.6-1-8c0.9-1.5,2.9-2.6,4.5-2.9c3.4,1.6,7.9,2.4,13.4,2.4c0.9,0,1.8,0,2.7-0.1c1.6-0.1,3.1-0.3,4.5-0.6
		C281.4,87.7,283.2,90,282.2,94.5z M285.4,81.1c-1.7,2-5,3.1-9.5,3.3c-7.1,0.3-19.2-0.4-20.1-8.9c-0.3-2.4-0.2-5.2,2.4-7.6
		c0,0,0.1,0.1,0.1,0.1c3.4,4,17.8,4.5,23.9,2.4c1.5,0.2,4.4,1.1,4.7,5.1C287.1,77.9,286.6,79.7,285.4,81.1z"/>
</g>
</svg>
